<svg width="80" height="80" viewBox="0 0 80 80" fill="none" xmlns="http://www.w3.org/2000/svg">
<rect x="3.625" y="3.625" width="72.75" height="72.75" stroke="white" stroke-opacity="0.2" stroke-width="0.75"/>
<path d="M76 76H4V4H76V76ZM29.1748 66.5078C28.6767 66.5079 28.2657 66.7072 27.917 67.1182C27.5683 67.5292 27.3936 68.0273 27.3936 68.625C27.3936 69.198 27.5562 69.6717 27.8926 70.0703C28.2289 70.4563 28.6276 70.6553 29.1133 70.6553C29.3872 70.6552 29.6238 70.5933 29.8105 70.4688C30.0098 70.3442 30.1969 70.1449 30.3838 69.8584H30.4082V72.3623H31.6045V66.582H30.4082V67.2051H30.3838C30.2219 66.956 30.0471 66.782 29.8604 66.6699C29.6735 66.5703 29.4489 66.5078 29.1748 66.5078ZM44.584 66.5566H43.7246V66.5576H42.8281V70.5811H44.0244V67.6533H44.584V70.5811H45.7803V67.6533H46.6143L47.9219 70.2939L47.0254 72.3496H48.2705L50.7744 66.5693H49.5537L48.5205 68.9111L47.3613 66.5693H46.3584L46.3535 66.5566H45.7803V65.1748H44.584V66.5566ZM70.7559 66.4824C70.4818 66.4824 70.2572 66.5449 70.0703 66.6445C69.8836 66.7442 69.6967 66.9187 69.5225 67.1553H69.498V66.5693H68.3018V72.3496H69.5225V69.9326H69.5479C69.7471 70.1817 69.946 70.3693 70.1328 70.4814C70.3197 70.5936 70.557 70.6553 70.8311 70.6553C71.2793 70.6552 71.6782 70.4688 72.002 70.0703C72.3382 69.6718 72.4999 69.1983 72.5 68.6504C72.5 68.0526 72.3255 67.5416 71.9893 67.1182C71.6405 66.6946 71.2417 66.4824 70.7559 66.4824ZM54.1631 66.4697C53.665 66.4698 53.2413 66.6689 52.8926 67.0674C52.5438 67.466 52.3701 67.9397 52.3701 68.5127C52.3701 69.0856 52.5446 69.5836 52.8809 69.9697C53.2172 70.3558 53.6407 70.5557 54.1514 70.5557C54.6246 70.5555 55.0353 70.3309 55.3965 69.8701V70.3438C55.3965 70.6676 55.3221 70.9296 55.1602 71.1289C55.0107 71.3281 54.8108 71.4277 54.5742 71.4277C54.2754 71.4276 53.989 71.24 53.7275 70.8789H52.3818C52.5313 71.377 52.7683 71.7384 53.1045 71.9502C53.4408 72.162 53.8896 72.2617 54.4502 72.2617C54.8985 72.2617 55.2975 72.1868 55.6338 72.0498C55.9698 71.9128 56.2185 71.6887 56.3555 71.4023C56.4925 71.1158 56.5674 70.8541 56.5674 70.6299V66.5566H55.3838V67.1172C54.9853 66.6939 54.5865 66.4697 54.1631 66.4697ZM16.4326 66.5566H15.5732V66.5693H14.751V68.5254C14.751 68.7994 14.6758 69.0239 14.5264 69.1982C14.3769 69.3849 14.1899 69.4717 13.9658 69.4717C13.7541 69.4716 13.5794 69.385 13.4424 69.1982C13.3054 69.0114 13.2314 68.774 13.2314 68.5V66.5693H12.0107V68.7988C12.0107 69.3593 12.1847 69.8082 12.5459 70.1445C12.9071 70.4809 13.3806 70.6553 13.9785 70.6553C14.5514 70.6553 15.0248 70.4935 15.3984 70.1572C15.7846 69.8209 15.9717 69.4094 15.9717 68.9111V67.6533H16.4326V70.5811H17.6289V67.6533H18.1973C18.0765 67.9288 18.0137 68.2354 18.0137 68.5752C18.0137 69.1731 18.213 69.6717 18.624 70.0703C19.035 70.4688 19.5333 70.6679 20.1436 70.668C20.4051 70.668 20.7541 70.5686 21.165 70.3818V69.1855C20.7789 69.335 20.4552 69.4221 20.2061 69.4346C19.9445 69.4346 19.7322 69.3475 19.5703 69.1855C19.3962 69.0237 19.3213 68.7995 19.3213 68.5381C19.3213 68.2643 19.4087 68.0525 19.5703 67.8906C19.7323 67.7287 19.9447 67.6406 20.2188 67.6406C20.5052 67.6407 20.829 67.7287 21.1777 67.8906V66.7568C20.8041 66.57 20.4054 66.4824 20.0068 66.4824C19.4215 66.4824 18.9479 66.6816 18.5742 67.0801C18.4154 67.2495 18.2925 67.4382 18.2012 67.6436V66.5566H17.6289V65.1748H16.4326V66.5566ZM61.4639 66.4697C60.8412 66.4697 60.3302 66.6563 59.9316 67.0547C59.533 67.4533 59.333 67.9524 59.333 68.5752C59.3331 69.1231 59.5202 69.6088 59.9062 70.0322C60.2675 70.4558 60.791 70.668 61.4512 70.668C62.0366 70.6679 62.5348 70.4679 62.9209 70.0693C63.3069 69.6708 63.5068 69.1727 63.5068 68.5625C63.5068 67.9646 63.3071 67.466 62.9209 67.0674C62.5224 66.6689 62.0367 66.4698 61.4639 66.4697ZM32.1396 68.7988C32.1396 69.3594 32.3145 69.8082 32.6758 70.1445C33.037 70.4808 33.5105 70.6553 34.1084 70.6553C34.6813 70.6552 35.1547 70.4935 35.5283 70.1572C35.9145 69.8209 36.1016 69.4094 36.1016 68.9111V66.5693H34.8809V68.5254C34.8808 68.7994 34.8057 69.0239 34.6562 69.1982C34.5068 69.385 34.3198 69.4717 34.0957 69.4717C33.884 69.4717 33.7093 69.385 33.5723 69.1982C33.4352 69.0114 33.3604 68.774 33.3604 68.5V66.5693H32.1396V68.7988ZM38.0068 66.4824C37.5211 66.4824 37.0978 66.6819 36.749 67.0928C36.4003 67.5038 36.2257 67.9896 36.2256 68.5625C36.2256 69.1478 36.3874 69.6339 36.7236 70.0449C37.0599 70.4559 37.4585 70.6551 37.9316 70.6553C38.2181 70.6553 38.4557 70.606 38.6426 70.4814C38.8294 70.3569 39.0163 70.1695 39.2031 69.8955H39.2275V70.5811H40.4111V66.5576H39.2148V67.1182C39.0031 66.894 38.8167 66.7315 38.6299 66.6318C38.443 66.5322 38.2435 66.4824 38.0068 66.4824ZM63.8545 68.7988C63.8545 69.3594 64.0294 69.8082 64.3906 70.1445C64.7394 70.4808 65.2254 70.6553 65.8232 70.6553C66.3961 70.6552 66.8696 70.4935 67.2432 70.1572C67.6293 69.8209 67.8154 69.4094 67.8154 68.9111V66.5693H66.5947V68.5254C66.5947 68.7994 66.5205 69.0239 66.3711 69.1982C66.2217 69.385 66.0346 69.4716 65.8105 69.4717C65.5988 69.4717 65.4241 69.385 65.2871 69.1982C65.1501 69.0114 65.0752 68.774 65.0752 68.5V66.5693H63.8545V68.7988ZM10.2529 67.1055C10.0661 66.8938 9.87917 66.7315 9.69238 66.6318C9.51811 66.5324 9.28174 66.4825 9.02051 66.4824C8.54715 66.4824 8.14786 66.6817 7.81152 67.0928C7.47524 67.5038 7.30081 68.0023 7.30078 68.5752C7.30078 69.1481 7.4633 69.6463 7.78711 70.0449C8.11098 70.4435 8.5098 70.6436 8.9707 70.6436C9.48128 70.6434 9.91692 70.3937 10.2656 69.8955H10.291V70.5811H11.4746V64.3398H10.2529V67.1055ZM21.5518 70.5811H22.7725V68.7744C22.7725 68.3511 22.8352 68.0274 22.9473 67.8281C23.0593 67.6289 23.2335 67.5294 23.4824 67.5293C23.6692 67.5293 23.8317 67.6157 23.9688 67.79C24.1058 67.9644 24.168 68.1769 24.168 68.4385V70.5928H25.376V68.2266C25.376 67.6785 25.2513 67.255 25.0146 66.9561C24.7655 66.6447 24.442 66.4952 24.0186 66.4951C23.7697 66.4951 23.5578 66.5321 23.3711 66.6191C23.1842 66.7063 22.984 66.8434 22.7598 67.0303V64.3398H21.5518V70.5811ZM41.0098 70.5811H42.2051V64.3398H41.0098V70.5811ZM59.1211 66.5078C58.9843 66.508 58.8472 66.5697 58.6855 66.6816C58.5361 66.7938 58.3865 66.956 58.2744 67.1553H58.25V66.5576H57.0537V70.5811H58.2744V68.7871C58.2744 68.4757 58.3366 68.2388 58.4736 68.0645C58.6107 67.8901 58.7978 67.8027 59.0469 67.8027C59.1465 67.8027 59.2461 67.8157 59.3457 67.8281V66.5195C59.271 66.5071 59.1958 66.5078 59.1211 66.5078ZM29.5615 67.6787C29.7608 67.6788 29.9602 67.7783 30.1221 67.9775C30.2839 68.1768 30.3711 68.3886 30.3711 68.6377C30.3711 68.8868 30.2835 69.111 30.0967 69.2979C29.9224 69.4845 29.711 69.5839 29.4746 69.584C29.2506 69.584 29.0635 69.4973 28.9141 69.3232C28.7646 69.1488 28.6895 68.9364 28.6895 68.6748C28.6895 68.3884 28.7766 68.1516 28.9385 67.9648C29.1004 67.778 29.3124 67.6787 29.5615 67.6787ZM38.3555 67.6787C38.5795 67.6787 38.7788 67.7656 38.9531 67.9521C39.1151 68.139 39.2031 68.3515 39.2031 68.6006C39.2031 68.8745 39.1274 69.0984 38.9531 69.2852C38.7788 69.4719 38.5794 69.5723 38.3428 69.5723C38.0938 69.5722 37.8945 69.4841 37.7451 69.3223C37.5958 69.1604 37.5215 68.9487 37.5215 68.6748C37.5215 68.3884 37.5959 68.1517 37.7578 67.9648C37.9197 67.7781 38.1189 67.6788 38.3555 67.6787ZM70.3701 67.6787C70.6066 67.6788 70.8062 67.7781 70.9805 67.9648C71.1423 68.1517 71.2295 68.3762 71.2295 68.6377C71.2295 68.9117 71.1541 69.1362 70.9922 69.3105C70.8428 69.4847 70.6437 69.5722 70.4072 69.5723C70.1581 69.5723 69.9586 69.4847 69.7842 69.2979C69.6223 69.1235 69.5352 68.8992 69.5352 68.6377C69.5352 68.3636 69.6222 68.139 69.7842 67.9521C69.9461 67.7654 70.1335 67.6787 70.3701 67.6787ZM61.4258 67.5654C61.6625 67.5654 61.8744 67.6659 62.0488 67.8652C62.2231 68.0645 62.3105 68.3012 62.3105 68.5752C62.3105 68.8491 62.2231 69.0732 62.0488 69.2725C61.8744 69.4717 61.6624 69.5713 61.4258 69.5713C61.1768 69.5712 60.9653 69.4716 60.791 69.2725C60.6166 69.0732 60.5293 68.8236 60.5293 68.5371C60.5294 68.2632 60.6167 68.0393 60.791 67.8525C60.9653 67.6658 61.1768 67.5655 61.4258 67.5654ZM9.38184 67.6533C9.63078 67.6534 9.83034 67.7537 9.99219 67.9404C10.1539 68.1147 10.2412 68.3388 10.2412 68.5752C10.2412 68.8491 10.1537 69.0857 9.97949 69.2725C9.81755 69.4593 9.59288 69.5596 9.34375 69.5596C9.13211 69.5595 8.94531 69.4722 8.7959 69.2979C8.64643 69.1235 8.57129 68.9112 8.57129 68.6621C8.57137 68.351 8.65883 68.1145 8.83301 67.9277C8.99495 67.7409 9.18253 67.6533 9.38184 67.6533ZM54.5625 67.5283C54.8114 67.5284 55.011 67.6158 55.1729 67.79C55.3347 67.9644 55.4092 68.189 55.4092 68.4629C55.4091 68.7367 55.3219 68.9607 55.1602 69.1475C54.9983 69.3342 54.799 69.4218 54.5625 69.4219C54.3135 69.4219 54.1011 69.3349 53.9268 69.1357C53.7399 68.9489 53.6523 68.7489 53.6523 68.5371C53.6524 68.2384 53.7401 68.0019 53.9268 67.8027C54.1012 67.6159 54.3134 67.5283 54.5625 67.5283ZM43.4141 64.3145C43.2148 64.3145 43.0401 64.3896 42.8906 64.5391C42.7412 64.6885 42.667 64.8632 42.667 65.0625C42.667 65.2742 42.7412 65.449 42.8906 65.5859C43.0276 65.7353 43.2024 65.8096 43.4141 65.8096C43.6256 65.8095 43.7999 65.7351 43.9492 65.5859C44.0987 65.449 44.1738 65.2742 44.1738 65.0625C44.1738 64.8632 44.0987 64.6885 43.9492 64.5391C43.7998 64.3898 43.6257 64.3145 43.4141 64.3145ZM61.4014 35.6279C58.1377 35.6279 55.3472 36.7988 53.0303 39.1406C51.4608 40.735 50.4268 42.541 49.916 44.5713C49.4177 42.5036 48.3839 40.6847 46.8145 39.1152C44.5101 36.8108 41.6698 35.6524 38.3066 35.6523C34.7067 35.6523 31.8164 36.861 29.624 39.29C28.2539 40.8097 27.3066 42.4537 26.7959 44.21C26.3101 42.267 25.4008 40.5981 24.0557 39.2031C21.9381 37.0482 19.1603 35.9512 15.71 35.9512H7.6123V59.6318H15.2734C18.8859 59.6318 21.7761 58.5603 23.9561 56.4053C25.376 54.9977 26.3355 53.2789 26.8213 51.2734C27.3445 53.2415 28.3159 54.9479 29.7109 56.4053C31.9531 58.7347 34.8307 59.8935 38.3311 59.8936C39.9131 59.8936 41.6944 59.5318 43.6875 58.7969L46.3535 61.999L49.8037 59.8184L46.8887 56.4551C48.4208 54.8357 49.4302 52.9672 49.916 50.8496C50.4143 52.9548 51.4109 54.8108 52.9307 56.4053C55.1853 58.772 57.9503 59.956 61.2139 59.9561C63.0201 59.9561 64.8017 59.5319 66.583 58.6973C68.3518 57.8627 69.7845 56.5425 70.8682 54.7363C71.9518 52.9302 72.4999 51.2362 72.5 49.6543V46.5898H61.5381V51.2109H67.1562C66.5708 52.6683 65.786 53.6528 64.8145 54.1885C63.8428 54.7117 62.8335 54.9854 61.7871 54.9854C59.8564 54.9853 58.212 54.2757 56.8418 52.8682C55.4716 51.4606 54.7988 49.7287 54.7988 47.6982C54.7988 45.7924 55.4841 44.1234 56.8418 42.7158C58.212 41.3083 59.8189 40.6104 61.6748 40.6104C62.8208 40.6104 63.9175 40.9092 64.9639 41.5195C66.0102 42.1299 66.8945 43.0393 67.6045 44.2725L71.0049 41.0957C68.7627 37.4588 65.5616 35.628 61.4014 35.6279ZM38.2812 40.374C40.2743 40.374 41.8815 41.0592 43.0898 42.417C44.2979 43.7747 44.8955 45.6057 44.8955 47.8975C44.908 49.9029 44.4352 51.4104 43.501 52.4443L41.1963 49.7412L37.833 51.9209L40.3369 54.873C39.4152 55.0225 38.6053 55.085 37.9326 55.085C36.1264 55.085 34.6443 54.3873 33.4609 52.9922C32.2775 51.597 31.6914 49.8032 31.6914 47.6357C31.6915 45.4934 32.3021 43.7496 33.5352 42.4043C34.7684 41.059 36.3505 40.374 38.2812 40.374ZM14.6387 40.4238C15.7597 40.4239 16.931 40.6351 18.1641 41.0586C19.3971 41.4822 20.3435 42.2925 20.9912 43.4883C21.6389 44.6841 21.9629 46.0543 21.9629 47.6113C21.9753 50.2891 21.3028 52.1948 19.9453 53.3408C18.6 54.4868 16.8806 55.0479 14.7754 55.0479H12.7578V40.4238H14.6387Z" fill="#FAFAFA"/>
</svg>
